<svg width="524" height="177" viewBox="0 0 524 177" fill="none" xmlns="http://www.w3.org/2000/svg">
<rect width="524" height="177" fill="white"/>
<rect x="18.405" y="20" width="151.57" height="140" fill="#E8F1FC"/>
<mask id="mask0" mask-type="alpha" maskUnits="userSpaceOnUse" x="18" y="20" width="152" height="140">
<rect x="18.405" y="20" width="151.57" height="140" fill="#E8F1FC"/>
</mask>
<g mask="url(#mask0)">
<line y1="-0.5" x2="313.999" y2="-0.5" transform="matrix(0.836789 -0.547526 0.836789 0.547525 -45.9712 169.954)" stroke="#385173" stroke-opacity="0.1"/>
<line y1="-0.5" x2="314.006" y2="-0.5" transform="matrix(0.837453 -0.54651 0.837453 0.54651 -133.165 70.9224)" stroke="#385173" stroke-opacity="0.1"/>
<line y1="-0.5" x2="313.999" y2="-0.5" transform="matrix(0.836789 -0.547526 0.836789 0.547525 -39.5551 177.586)" stroke="#385173" stroke-opacity="0.1"/>
<line y1="-0.5" x2="313.999" y2="-0.5" transform="matrix(0.836789 -0.547526 0.836789 0.547525 -126.75 78.5546)" stroke="#385173" stroke-opacity="0.1"/>
<line y1="-0.5" x2="313.999" y2="-0.5" transform="matrix(0.836789 -0.547526 0.836789 0.547525 -33.1391 185.219)" stroke="#385173" stroke-opacity="0.1"/>
<line y1="-0.5" x2="313.999" y2="-0.5" transform="matrix(0.836789 -0.547526 0.836789 0.547525 -120.334 86.187)" stroke="#385173" stroke-opacity="0.1"/>
<line y1="-0.5" x2="313.999" y2="-0.5" transform="matrix(0.836789 -0.547526 0.836789 0.547525 -26.7241 192.852)" stroke="#385173" stroke-opacity="0.1"/>
<line y1="-0.5" x2="313.999" y2="-0.5" transform="matrix(0.836789 -0.547526 0.836789 0.547525 -113.918 93.8196)" stroke="#385173" stroke-opacity="0.1"/>
<line y1="-0.5" x2="313.999" y2="-0.5" transform="matrix(0.836789 -0.547526 0.836789 0.547525 -20.3081 200.484)" stroke="#385173" stroke-opacity="0.1"/>
<line y1="-0.5" x2="313.999" y2="-0.5" transform="matrix(0.836789 -0.547526 0.836789 0.547525 -107.503 101.452)" stroke="#385173" stroke-opacity="0.1"/>
<line y1="-0.5" x2="313.999" y2="-0.5" transform="matrix(0.836789 -0.547526 0.836789 0.547525 -13.892 208.117)" stroke="#385173" stroke-opacity="0.1"/>
<line y1="-0.5" x2="313.999" y2="-0.5" transform="matrix(0.836789 -0.547526 0.836789 0.547525 -101.087 109.085)" stroke="#385173" stroke-opacity="0.1"/>
<line y1="-0.5" x2="313.999" y2="-0.5" transform="matrix(0.836789 -0.547526 0.836789 0.547525 -7.47696 215.749)" stroke="#385173" stroke-opacity="0.1"/>
<line y1="-0.5" x2="313.999" y2="-0.5" transform="matrix(0.836789 -0.547526 0.836789 0.547525 -94.6716 116.717)" stroke="#385173" stroke-opacity="0.1"/>
<line y1="-0.5" x2="313.999" y2="-0.5" transform="matrix(0.836789 -0.547526 0.836789 0.547525 -1.06091 223.382)" stroke="#385173" stroke-opacity="0.1"/>
<line y1="-0.5" x2="313.999" y2="-0.5" transform="matrix(0.836789 -0.547526 0.836789 0.547525 -88.2561 124.35)" stroke="#385173" stroke-opacity="0.1"/>
<line y1="-0.5" x2="313.999" y2="-0.5" transform="matrix(0.836789 -0.547526 0.836789 0.547525 5.35504 231.014)" stroke="#385173" stroke-opacity="0.1"/>
<line y1="-0.5" x2="313.999" y2="-0.5" transform="matrix(0.836789 -0.547526 0.836789 0.547525 -81.8401 131.982)" stroke="#385173" stroke-opacity="0.1"/>
<line y1="-0.5" x2="313.999" y2="-0.5" transform="matrix(0.836789 -0.547526 0.836789 0.547525 11.7701 238.646)" stroke="#385173" stroke-opacity="0.1"/>
<line y1="-0.5" x2="313.999" y2="-0.5" transform="matrix(0.836789 -0.547526 0.836789 0.547525 -75.424 139.615)" stroke="#385173" stroke-opacity="0.1"/>
<line y1="-0.5" x2="313.999" y2="-0.5" transform="matrix(0.836789 -0.547526 0.836789 0.547525 18.1861 246.279)" stroke="#385173" stroke-opacity="0.1"/>
<line y1="-0.5" x2="313.999" y2="-0.5" transform="matrix(0.836789 -0.547526 0.836789 0.547525 24.6022 253.912)" stroke="#385173" stroke-opacity="0.1"/>
<line y1="-0.5" x2="313.999" y2="-0.5" transform="matrix(0.836789 -0.547526 0.836789 0.547525 -68.7167 147.82)" stroke="#385173" stroke-opacity="0.1"/>
<line y1="-0.5" x2="313.999" y2="-0.5" transform="matrix(0.836789 -0.547526 0.836789 0.547525 31.0182 261.544)" stroke="#385173" stroke-opacity="0.1"/>
<line y1="-0.5" x2="313.999" y2="-0.5" transform="matrix(0.836789 -0.547526 0.836789 0.547525 -62.3018 155.452)" stroke="#385173" stroke-opacity="0.1"/>
<line y1="-0.5" x2="313.999" y2="-0.5" transform="matrix(0.836789 -0.547526 0.836789 0.547525 37.4332 269.177)" stroke="#385173" stroke-opacity="0.1"/>
<line y1="-0.5" x2="313.999" y2="-0.5" transform="matrix(0.836789 -0.547526 0.836789 0.547525 -55.8857 163.085)" stroke="#385173" stroke-opacity="0.1"/>
</g>
<rect x="185.132" y="20" width="320.463" height="35" fill="#C1D9F8"/>
<rect x="25.9835" y="137" width="64.9587" height="16" fill="#C1D9F8"/>
<rect x="408.157" y="137" width="97.438" height="23" fill="#C1D9F8"/>
<rect x="185.132" y="72" width="320.463" height="23" fill="#E8F1FC"/>
<rect x="185.132" y="107" width="137.496" height="23" fill="#E8F1FC"/>
</svg>
