<svg width="217" height="66" viewBox="0 0 217 66" fill="none" xmlns="http://www.w3.org/2000/svg">
<g clip-path="url(#clip0)">
<path d="M113.915 39.8341C111.255 39.8477 108.623 39.3043 106.186 38.239C103.822 37.2122 101.668 35.7567 99.8351 33.9463C98.0042 32.1345 96.5338 29.9926 95.5017 27.6341C94.4363 25.2098 93.8936 22.5888 93.909 19.9414C93.8927 17.2688 94.4351 14.6221 95.5017 12.1707C96.5258 9.80632 97.9859 7.65517 99.8058 5.82923C101.63 4.01415 103.786 2.56522 106.157 1.56094C109.735 0.0676431 113.67 -0.362611 117.487 0.321834C121.304 1.00628 124.843 2.77633 127.678 5.41948L124.512 7.9024C123.078 6.63849 121.435 5.63327 119.656 4.93167C117.826 4.22378 115.877 3.87273 113.915 3.89753C111.775 3.88681 109.657 4.32904 107.701 5.19509C103.853 6.86348 100.782 9.92619 99.1072 13.7658C98.245 15.7106 97.8022 17.8147 97.8076 19.9414C97.7987 22.0528 98.2418 24.1417 99.1072 26.0683C100.815 29.9156 103.898 32.9889 107.754 34.6878C111.298 36.2412 115.296 36.4152 118.962 35.1756C120.538 34.6158 122.02 33.8214 123.359 32.8195L124.062 32.2487V23.2829H115.513L115.459 19.4146H127.995V34.0487C127.604 34.4032 126.976 34.9073 126.109 35.5609C125.121 36.2981 124.071 36.9508 122.973 37.5122C121.648 38.1914 120.26 38.7419 118.83 39.1561C117.234 39.6219 115.578 39.8503 113.915 39.8341Z" fill="#131313"/>
<path d="M157.269 0V3.87317H135.489V18.0195H153.659V21.9073H135.489V35.961H157.269V39.8341H131.562V0H157.269Z" fill="#131313"/>
<path d="M160.835 0H182.297C184.003 0.0374507 185.676 0.473498 187.183 1.27317C187.833 1.62547 188.44 2.05278 188.991 2.54634C189.618 3.11162 190.155 3.76967 190.583 4.49756C191.078 5.34251 191.453 6.25202 191.697 7.2C191.998 8.3875 192.141 9.60939 192.122 10.8341C192.139 12.0058 191.996 13.1743 191.697 14.3073C191.447 15.2378 191.072 16.1304 190.583 16.961C190.15 17.6849 189.613 18.3422 188.991 18.9122C188.437 19.4244 187.831 19.8773 187.183 20.2634C185.699 21.1727 184.029 21.7363 182.297 21.9122L191.966 39.839H187.5L177.886 21.9073H164.768V39.8341H160.86L160.835 0ZM164.744 18.0488H181.672C182.354 18.0274 183.028 17.8922 183.665 17.6488C184.464 17.3631 185.203 16.9313 185.844 16.3756C186.571 15.7466 187.167 14.9808 187.598 14.122C188.097 13.099 188.341 11.9713 188.311 10.8341C188.348 9.70462 188.131 8.58121 187.676 7.54634C187.3 6.72862 186.757 5.99778 186.084 5.4C185.466 4.86371 184.742 4.46464 183.958 4.22927C183.217 4.00668 182.447 3.89169 181.672 3.88781H164.768L164.744 18.0488Z" fill="#131313"/>
<path d="M34.1301 0V40.0537L6.6687 15.6098V34.839L0 40.0537V0L27.476 25.2V5.2L34.1301 0Z" fill="#131313"/>
<path d="M40.0806 0.1073H66.8091V6.76583H40.0806V0.1073ZM63.8192 16.7268V23.3853H40.0806V16.7268H63.8192ZM40.0806 40.0536V33.4H66.8091V40.0536H40.0806Z" fill="#131313"/>
<path d="M92.756 6.71225H79.4088V40.0537H72.7255V0.0537109H92.756V6.71225Z" fill="#131313"/>
</g>
<path d="M120.156 63.18C118.668 63.18 117.48 62.64 116.592 61.56C115.704 60.48 115.26 59.064 115.26 57.312C115.26 55.392 115.704 53.58 116.592 51.876C117.48 50.148 118.656 48.768 120.12 47.736C121.608 46.68 123.18 46.152 124.836 46.152C125.364 46.152 125.712 46.26 125.88 46.476C126.072 46.668 126.228 47.028 126.348 47.556C126.852 47.46 127.38 47.412 127.932 47.412C129.108 47.412 129.696 47.832 129.696 48.672C129.696 49.176 129.516 50.376 129.156 52.272C128.604 55.032 128.328 56.952 128.328 58.032C128.328 58.392 128.412 58.68 128.58 58.896C128.772 59.112 129.012 59.22 129.3 59.22C129.756 59.22 130.308 58.932 130.956 58.356C131.604 57.756 132.48 56.796 133.584 55.476C133.872 55.14 134.196 54.972 134.556 54.972C134.868 54.972 135.108 55.116 135.276 55.404C135.468 55.692 135.564 56.088 135.564 56.592C135.564 57.552 135.336 58.296 134.88 58.824C133.896 60.048 132.852 61.08 131.748 61.92C130.644 62.76 129.576 63.18 128.544 63.18C127.752 63.18 127.02 62.916 126.348 62.388C125.7 61.836 125.208 61.092 124.872 60.156C123.624 62.172 122.052 63.18 120.156 63.18ZM121.452 59.544C121.98 59.544 122.484 59.232 122.964 58.608C123.444 57.984 123.792 57.156 124.008 56.124L125.34 49.5C124.332 49.524 123.396 49.908 122.532 50.652C121.692 51.372 121.02 52.332 120.516 53.532C120.012 54.732 119.76 56.004 119.76 57.348C119.76 58.092 119.904 58.644 120.192 59.004C120.504 59.364 120.924 59.544 121.452 59.544ZM150.81 52.056C150.882 52.032 151.002 52.02 151.17 52.02C151.53 52.02 151.806 52.14 151.998 52.38C152.19 52.62 152.286 52.944 152.286 53.352C152.286 54.096 152.142 54.684 151.854 55.116C151.566 55.524 151.134 55.824 150.558 56.016C149.454 56.376 148.278 56.556 147.03 56.556C145.974 56.556 144.978 56.412 144.042 56.124C143.346 57.252 142.578 58.416 141.738 59.616C140.778 60.984 139.95 61.92 139.254 62.424C138.558 62.928 137.766 63.18 136.878 63.18C135.894 63.18 135.114 62.796 134.538 62.028C133.986 61.26 133.638 60.048 133.494 58.392C133.206 55.032 133.062 52.092 133.062 49.572V48.312C133.086 47.52 133.302 46.968 133.71 46.656C134.118 46.344 134.73 46.188 135.546 46.188C136.17 46.188 136.626 46.332 136.914 46.62C137.226 46.884 137.382 47.34 137.382 47.988C137.382 50.748 137.55 54.336 137.886 58.752C139.326 56.616 140.406 54.912 141.126 53.64C140.766 52.944 140.586 52.116 140.586 51.156C140.586 50.34 140.766 49.548 141.126 48.78C141.486 48.012 141.978 47.388 142.602 46.908C143.226 46.428 143.934 46.188 144.726 46.188C145.422 46.188 145.986 46.44 146.418 46.944C146.85 47.424 147.066 48.132 147.066 49.068C147.066 50.148 146.778 51.384 146.202 52.776C147.114 52.728 148.326 52.548 149.838 52.236L150.81 52.056ZM152.834 63.18C151.754 63.18 150.866 62.688 150.17 61.704C149.498 60.696 149.162 59.448 149.162 57.96C149.162 56.16 149.282 54.516 149.522 53.028C149.762 51.516 150.158 49.92 150.71 48.24C150.95 47.52 151.286 47.004 151.718 46.692C152.15 46.38 152.834 46.224 153.77 46.224C154.298 46.224 154.658 46.308 154.85 46.476C155.066 46.644 155.174 46.896 155.174 47.232C155.174 47.424 155.042 48.072 154.778 49.176C154.538 50.064 154.346 50.868 154.202 51.588C153.722 54.108 153.482 55.788 153.482 56.628C153.482 57.132 153.542 57.492 153.662 57.708C153.782 57.9 153.974 57.996 154.238 57.996C154.598 57.996 155.042 57.636 155.57 56.916C156.122 56.196 156.698 55.104 157.298 53.64C157.922 52.176 158.522 50.376 159.098 48.24C159.29 47.52 159.578 47.004 159.962 46.692C160.37 46.38 160.97 46.224 161.762 46.224C162.314 46.224 162.698 46.296 162.914 46.44C163.13 46.56 163.238 46.8 163.238 47.16C163.238 47.76 162.938 49.404 162.338 52.092C161.666 55.164 161.33 57.06 161.33 57.78C161.33 58.236 161.426 58.596 161.618 58.86C161.81 59.1 162.062 59.22 162.374 59.22C162.854 59.22 163.418 58.932 164.066 58.356C164.738 57.756 165.626 56.796 166.73 55.476C167.018 55.14 167.342 54.972 167.702 54.972C168.014 54.972 168.254 55.116 168.422 55.404C168.614 55.692 168.71 56.088 168.71 56.592C168.71 57.552 168.482 58.296 168.026 58.824C166.994 60.096 165.878 61.14 164.678 61.956C163.502 62.772 162.158 63.18 160.646 63.18C159.494 63.18 158.642 62.736 158.09 61.848C157.562 60.96 157.298 59.712 157.298 58.104C156.89 59.736 156.278 60.996 155.462 61.884C154.646 62.748 153.77 63.18 152.834 63.18ZM186.599 54.972C186.911 54.972 187.151 55.116 187.319 55.404C187.511 55.692 187.607 56.088 187.607 56.592C187.607 57.552 187.379 58.296 186.923 58.824C185.843 60.144 184.751 61.2 183.647 61.992C182.543 62.784 181.235 63.18 179.723 63.18C177.875 63.18 176.387 62.652 175.259 61.596C174.131 60.54 173.566 59.136 173.566 57.384C173.566 56.448 174.047 55.776 175.007 55.368C176.063 54.912 176.819 54.432 177.275 53.928C177.731 53.4 177.959 52.764 177.959 52.02C177.959 51.588 177.863 51.264 177.671 51.048C177.503 50.832 177.287 50.724 177.023 50.724C176.375 50.724 175.655 51.192 174.863 52.128C174.095 53.064 173.375 54.276 172.703 55.764C172.031 57.228 171.503 58.74 171.119 60.3C170.855 61.428 170.543 62.196 170.183 62.604C169.847 62.988 169.307 63.18 168.562 63.18C167.819 63.18 167.267 62.916 166.907 62.388C166.571 61.836 166.343 60.996 166.223 59.868C166.103 58.74 166.043 57.084 166.043 54.9C166.043 51.204 166.415 47.352 167.159 43.344C167.927 39.336 169.043 35.976 170.507 33.264C171.995 30.528 173.771 29.16 175.835 29.16C176.939 29.16 177.827 29.64 178.499 30.6C179.195 31.536 179.543 32.76 179.543 34.272C179.543 36.696 178.835 39.216 177.419 41.832C176.003 44.424 173.699 47.46 170.507 50.94C170.435 52.188 170.399 53.472 170.399 54.792C171.551 51.792 172.871 49.62 174.359 48.276C175.847 46.908 177.239 46.224 178.535 46.224C179.735 46.224 180.695 46.632 181.415 47.448C182.159 48.264 182.531 49.272 182.531 50.472C182.531 51.792 182.195 53.004 181.523 54.108C180.851 55.212 179.699 56.196 178.067 57.06C178.163 57.708 178.451 58.236 178.931 58.644C179.435 59.028 180.035 59.22 180.731 59.22C181.475 59.22 182.195 58.932 182.891 58.356C183.587 57.78 184.499 56.82 185.627 55.476C185.915 55.14 186.239 54.972 186.599 54.972ZM175.079 32.724C174.647 32.724 174.167 33.348 173.639 34.596C173.111 35.82 172.595 37.488 172.091 39.6C171.611 41.688 171.215 43.968 170.903 46.44C172.391 44.688 173.615 42.78 174.575 40.716C175.559 38.652 176.051 36.78 176.051 35.1C176.051 34.332 175.967 33.744 175.799 33.336C175.631 32.928 175.391 32.724 175.079 32.724ZM189.133 63.18C187.645 63.18 186.457 62.64 185.569 61.56C184.681 60.48 184.237 59.064 184.237 57.312C184.237 55.392 184.681 53.58 185.569 51.876C186.457 50.148 187.633 48.768 189.097 47.736C190.585 46.68 192.157 46.152 193.813 46.152C194.341 46.152 194.689 46.26 194.857 46.476C195.049 46.668 195.205 47.028 195.325 47.556C195.829 47.46 196.357 47.412 196.909 47.412C198.085 47.412 198.673 47.832 198.673 48.672C198.673 49.176 198.493 50.376 198.133 52.272C197.581 55.032 197.305 56.952 197.305 58.032C197.305 58.392 197.389 58.68 197.557 58.896C197.749 59.112 197.989 59.22 198.277 59.22C198.733 59.22 199.285 58.932 199.933 58.356C200.581 57.756 201.457 56.796 202.561 55.476C202.849 55.14 203.173 54.972 203.533 54.972C203.845 54.972 204.085 55.116 204.253 55.404C204.445 55.692 204.541 56.088 204.541 56.592C204.541 57.552 204.313 58.296 203.857 58.824C202.873 60.048 201.829 61.08 200.725 61.92C199.621 62.76 198.553 63.18 197.521 63.18C196.729 63.18 195.997 62.916 195.325 62.388C194.677 61.836 194.185 61.092 193.849 60.156C192.601 62.172 191.029 63.18 189.133 63.18ZM190.429 59.544C190.957 59.544 191.461 59.232 191.941 58.608C192.421 57.984 192.769 57.156 192.985 56.124L194.317 49.5C193.309 49.524 192.373 49.908 191.509 50.652C190.669 51.372 189.997 52.332 189.493 53.532C188.989 54.732 188.737 56.004 188.737 57.348C188.737 58.092 188.881 58.644 189.169 59.004C189.481 59.364 189.901 59.544 190.429 59.544ZM207.555 49.644C207.507 50.844 207.483 51.78 207.483 52.452C207.483 54.18 207.567 55.536 207.735 56.52C207.927 57.48 208.227 58.176 208.635 58.608C209.067 59.016 209.655 59.22 210.399 59.22C210.783 59.22 211.239 59.1 211.767 58.86C212.295 58.62 212.775 58.308 213.207 57.924C213.471 57.684 213.735 57.564 213.999 57.564C214.287 57.564 214.515 57.732 214.683 58.068C214.875 58.38 214.971 58.764 214.971 59.22C214.971 59.676 214.875 60.12 214.683 60.552C214.515 60.984 214.251 61.344 213.891 61.632C212.643 62.664 211.227 63.18 209.643 63.18C207.363 63.18 205.695 62.232 204.639 60.336C203.583 58.416 203.055 55.92 203.055 52.848C203.055 51.792 203.091 50.724 203.163 49.644H201.759C201.039 49.644 200.547 49.512 200.283 49.248C200.043 48.984 199.923 48.564 199.923 47.988C199.923 46.644 200.463 45.972 201.543 45.972H203.595C204.003 43.332 204.627 40.92 205.467 38.736C206.307 36.552 207.315 34.812 208.491 33.516C209.691 32.22 210.975 31.572 212.343 31.572C213.351 31.572 214.143 32.016 214.719 32.904C215.295 33.792 215.583 34.908 215.583 36.252C215.583 39.972 214.023 43.212 210.903 45.972H214.935C215.319 45.972 215.595 46.056 215.763 46.224C215.931 46.392 216.015 46.704 216.015 47.16C216.015 48.816 214.659 49.644 211.947 49.644H207.555ZM211.371 35.028C211.011 35.028 210.603 35.484 210.147 36.396C209.715 37.284 209.295 38.532 208.887 40.14C208.503 41.724 208.179 43.488 207.915 45.432C209.331 44.208 210.387 42.84 211.083 41.328C211.803 39.792 212.163 38.4 212.163 37.152C212.163 35.736 211.899 35.028 211.371 35.028Z" fill="#D0A567"/>
<defs>
<clipPath id="clip0">
<rect width="192" height="40" fill="white"/>
</clipPath>
</defs>
</svg>
